<?xml version="1.0" encoding="UTF-8" standalone="no"?>
<!-- Created with Inkscape (http://www.inkscape.org/) -->

<svg
   xmlns:dc="http://purl.org/dc/elements/1.1/"
   xmlns:cc="http://creativecommons.org/ns#"
   xmlns:rdf="http://www.w3.org/1999/02/22-rdf-syntax-ns#"
   xmlns:svg="http://www.w3.org/2000/svg"
   xmlns="http://www.w3.org/2000/svg"
   xmlns:sodipodi="http://sodipodi.sourceforge.net/DTD/sodipodi-0.dtd"
   xmlns:inkscape="http://www.inkscape.org/namespaces/inkscape"
   id="svg4136"
   version="1.1"
   inkscape:version="0.91 r13725"
   xml:space="preserve"
   width="165"
   height="155"
   viewBox="0 0 165 155"
   sodipodi:docname="banana_play.svg"><metadata
     id="metadata4142"><rdf:RDF><cc:Work
         rdf:about=""><dc:format>image/svg+xml</dc:format><dc:type
           rdf:resource="http://purl.org/dc/dcmitype/StillImage" /><dc:title></dc:title></cc:Work></rdf:RDF></metadata><defs
     id="defs4140"><clipPath
       clipPathUnits="userSpaceOnUse"
       id="clipPath4150"><path
         d="m 0,1000 1000,0 L 1000,0 0,0 0,1000 Z"
         id="path4152"
         inkscape:connector-curvature="0" /></clipPath><clipPath
       clipPathUnits="userSpaceOnUse"
       id="clipPath4342"><path
         d="m 0,1000 1000,0 L 1000,0 0,0 0,1000 Z"
         id="path4344"
         inkscape:connector-curvature="0" /></clipPath></defs><sodipodi:namedview
     pagecolor="#ffffff"
     bordercolor="#666666"
     borderopacity="1"
     objecttolerance="10"
     gridtolerance="10"
     guidetolerance="10"
     inkscape:pageopacity="0"
     inkscape:pageshadow="2"
     inkscape:window-width="1366"
     inkscape:window-height="705"
     id="namedview4138"
     showgrid="false"
     fit-margin-top="0"
     fit-margin-left="0"
     fit-margin-right="0"
     fit-margin-bottom="0"
     inkscape:zoom="4.37"
     inkscape:cx="66.393185"
     inkscape:cy="95.121723"
     inkscape:window-x="-4"
     inkscape:window-y="-4"
     inkscape:window-maximized="1"
     inkscape:current-layer="g4144" /><g
     id="g4144"
     inkscape:groupmode="layer"
     inkscape:label="banana_logotype"
     transform="matrix(1.25,0,0,-1.25,-207.46766,1053.68)"><g
       id="g4184"
       transform="translate(268.32863,806.62671)"><path
         d="M 12.22595,-7.0781813 C -16.926729,-20.739474 -71.439765,-46.503893 -83.582186,-35.790513 -83.582186,-53.807702 -83.741,16.321 -83.741,16.321 c 0,14.234 15.41,23.131 27.739,16.01 z"
         style="fill:#ffffff;fill-opacity:1;fill-rule:nonzero;stroke:none"
         id="path4186"
         inkscape:connector-curvature="0"
         sodipodi:nodetypes="ccscc" /></g><g
       id="g4188"
       transform="translate(284.97043,764.99231)"><path
         d="m 0,0 -72.644,-41.946 c -12.329,-7.113 -27.738,1.785 -27.738,16.018 l 0,31.755 c 20.030584,3.5093985 89.531271,19.370457 93.2267179,30.171641 L 0,32.028 C 12.329,24.907 12.329,7.113 0,0"
         style="fill:#ffffff;fill-opacity:1;fill-rule:nonzero;stroke:none"
         id="path4190"
         inkscape:connector-curvature="0"
         sodipodi:nodetypes="ccscccc" /></g><g
       id="g4196"
       transform="translate(169.05003,790.30071)"><path
         d="M 0,0 0,0 -0.001,-0.002 0,0 Z"
         style="fill:#ffffff;fill-opacity:1;fill-rule:nonzero;stroke:none"
         id="path4198"
         inkscape:connector-curvature="0" /></g></g></svg>